<?xml version="1.0" encoding="utf-8"?>
<!-- Generator: Adobe Illustrator 16.0.4, SVG Export Plug-In . SVG Version: 6.00 Build 0)  -->
<!DOCTYPE svg PUBLIC "-//W3C//DTD SVG 1.1//EN" "http://www.w3.org/Graphics/SVG/1.1/DTD/svg11.dtd">
<svg version="1.1" id="Layer_1" xmlns="http://www.w3.org/2000/svg" xmlns:xlink="http://www.w3.org/1999/xlink" x="0px" y="0px"
	 width="500px" height="500px" viewBox="0 0 500 500" enable-background="new 0 0 500 500" xml:space="preserve">
<g>
	<path fill="#231F20" d="M111.16,80.345c17.448,0,30.796,5.654,40.044,16.961c9.249,11.308,13.873,27.67,13.873,49.087
		c0,21.492-4.605,37.873-13.816,49.143c-9.211,11.27-22.578,16.905-40.101,16.905c-17.448,0-30.777-5.635-39.988-16.905
		c-9.211-11.271-13.816-27.651-13.816-49.143c0-21.417,4.605-37.779,13.816-49.087S93.712,80.345,111.16,80.345z M111.16,97.868
		c-10.484,0-18.422,4.082-23.813,12.244c-5.392,8.163-8.088,20.256-8.088,36.282c0,15.95,2.696,28.025,8.088,36.225
		c5.392,8.2,13.329,12.3,23.813,12.3c10.559,0,18.534-4.1,23.926-12.3c5.392-8.2,8.087-20.275,8.087-36.225
		c0-16.025-2.695-28.119-8.087-36.282C129.694,101.949,121.719,97.868,111.16,97.868z"/>
	<path fill="#231F20" d="M249.435,47.658v35.72h46.962V99.44h-46.962v68.294c0,9.286,1.76,15.763,5.279,19.433
		c3.528,3.669,9.669,5.504,18.431,5.504h23.252v16.512h-25.274c-15.501,0-26.443-3.108-32.809-9.323s-9.548-16.924-9.548-32.125
		V99.44h-33.585V83.378h33.585v-35.72H249.435z"/>
	<path fill="#231F20" d="M388.167,80.345c17.448,0,30.777,5.654,40.025,16.961s13.892,27.67,13.892,49.087
		c0,21.492-4.605,37.873-13.816,49.143c-9.211,11.27-22.578,16.905-40.101,16.905c-17.448,0-30.777-5.635-39.988-16.905
		c-9.211-11.271-13.816-27.651-13.816-49.143c0-21.417,4.605-37.779,13.816-49.087S370.719,80.345,388.167,80.345z M388.167,97.868
		c-10.484,0-18.422,4.082-23.813,12.244c-5.392,8.163-8.087,20.256-8.087,36.282c0,15.95,2.695,28.025,8.087,36.225
		c5.392,8.2,13.329,12.3,23.813,12.3c10.559,0,18.534-4.1,23.926-12.3c5.392-8.2,8.087-20.275,8.087-36.225
		c0-16.025-2.695-28.119-8.087-36.282C406.701,101.949,398.726,97.868,388.167,97.868z"/>
</g>
<g>
	<path fill="#231F20" d="M243.986,452.24c-5.298,0-9.585-4.27-9.585-9.586c0-5.279,4.287-9.585,9.585-9.585
		c96.367,0,174.752-78.366,174.752-174.733c0-5.299,4.287-9.585,9.585-9.585c5.299,0,9.586,4.287,9.586,9.585
		C437.909,365.262,350.912,452.24,243.986,452.24z"/>
</g>
</svg>
